<svg width="42" height="42" viewBox="0 0 42 42" fill="none" xmlns="http://www.w3.org/2000/svg">
<path d="M41 21C41 32.045 32.045 41 21 41C9.955 41 1 32.045 1 21C1 9.955 9.955 1 21 1C32.045 1 41 9.955 41 21Z" fill="url(#paint0_linear_7_2)"/>
<path opacity="0.05" d="M7.11899 20.466C15.274 16.771 24.852 12.762 26.327 12.182C29.579 10.903 30.997 12.21 30.775 14.295C30.502 16.85 29.208 24.285 28.412 29.612C27.946 32.729 26.258 33.684 24.353 32.475C22.908 31.558 17.94 28.305 16.633 27.193C15.742 26.435 15.121 25.585 15.753 24.719C15.938 24.466 16.411 23.956 16.674 23.702C17.993 22.424 17.815 22.149 16.22 23.29C16.03 23.426 14.928 24.225 14.475 24.527C13.365 25.267 12.344 25.307 10.613 24.719C9.19699 24.238 7.83699 23.867 6.97899 23.496C5.79399 22.983 5.33999 21.272 7.11899 20.466Z" fill="black"/>
<path opacity="0.07" d="M7.83599 20.591C15.408 17.206 24.72 13.327 26.082 12.778C29.346 11.46 30.547 12.242 30.196 14.789C29.87 17.147 28.713 24.443 27.902 29.334C27.424 32.213 26.028 32.847 24.21 31.671C23.071 30.937 18.487 27.917 17.375 27.038C16.515 26.359 15.624 25.575 16.665 24.44C17.013 24.061 18.935 22.206 20.372 20.826C21.205 20.025 20.908 19.63 19.903 20.318C18.06 21.581 15.045 23.58 14.507 23.943C13.482 24.633 12.519 24.799 10.843 24.272C9.52199 23.856 8.24599 23.453 7.58099 23.194C6.09499 22.618 6.07499 21.378 7.83599 20.591Z" fill="black"/>
<path d="M8.55299 20.717C15.543 17.642 24.588 13.893 25.837 13.374C29.112 12.016 30.117 12.276 29.616 15.284C29.256 17.446 28.218 24.603 27.39 29.058C26.899 31.7 25.797 32.013 24.065 30.87C23.232 30.32 19.027 27.539 18.114 26.886C17.281 26.291 16.132 25.575 17.573 24.165C18.086 23.663 21.447 20.453 24.066 17.955C24.409 17.627 23.978 17.088 23.582 17.351C20.052 19.692 15.158 22.941 14.535 23.364C13.594 24.003 12.69 24.296 11.068 23.83C9.84199 23.478 8.64499 23.058 8.17899 22.898C6.38399 22.282 6.80999 21.484 8.55299 20.717Z" fill="white"/>
<defs>
<linearGradient id="paint0_linear_7_2" x1="6.858" y1="6.858" x2="35.142" y2="35.142" gradientUnits="userSpaceOnUse">
<stop stop-color="#33BEF0"/>
<stop offset="1" stop-color="#0A85D9"/>
</linearGradient>
</defs>
</svg>
