<svg width="154" height="30" viewBox="0 0 154 30" fill="none" xmlns="http://www.w3.org/2000/svg">
<path d="M59.2884 14.0274C59.9338 13.3715 60.1617 12.409 59.8832 11.5153C59.6046 10.6217 58.8775 9.98266 57.9856 9.84752L51.18 8.81659C51.1675 8.81471 51.1569 8.80654 51.1513 8.79489L48.108 2.36618C47.7091 1.52357 46.9014 1 45.9999 1C45.0985 1 44.2909 1.52357 43.892 2.36618L40.8485 8.79489C40.843 8.80654 40.8323 8.81458 40.8199 8.81659L34.0144 9.84752C33.1225 9.98266 32.3954 10.6217 32.1168 11.5153C31.8383 12.409 32.0662 13.3715 32.7116 14.0274L37.6361 19.0315C37.6451 19.0406 37.6492 19.0537 37.647 19.0666L36.4845 26.1326C36.3321 27.0586 36.6906 27.9771 37.4197 28.5293C38.149 29.0818 39.0976 29.153 39.8953 28.7159L45.9823 25.3798C45.9934 25.3737 46.0067 25.3738 46.0178 25.3798L52.1048 28.7159C52.4518 28.9061 52.8273 29 53.2009 29C53.6862 29 54.1684 28.8414 54.5803 28.5293C55.3094 27.9771 55.6678 27.0586 55.5155 26.1324L54.353 19.0666C54.3508 19.0537 54.3551 19.0406 54.3639 19.0315L59.2884 14.0274ZM52.0735 19.474L53.236 26.5399C53.2391 26.5586 53.24 26.5643 53.2208 26.5787C53.2017 26.5932 53.1968 26.5905 53.1807 26.5817L47.0936 23.2455C46.4088 22.8703 45.591 22.8703 44.9059 23.2455L38.8189 26.5815C38.8028 26.5902 38.7979 26.5931 38.7788 26.5786C38.7597 26.5641 38.7606 26.5585 38.7636 26.5399L39.9262 19.4739C40.0569 18.6788 39.8042 17.8681 39.2501 17.3049L34.3258 12.3009C34.3129 12.2876 34.3089 12.2837 34.3162 12.2603C34.3235 12.2369 34.3289 12.2361 34.3469 12.2333L41.1524 11.2023C41.9183 11.0863 42.58 10.5853 42.9224 9.86185L45.9659 3.43301C45.974 3.41614 45.9763 3.41091 45.9999 3.41091C46.0236 3.41091 46.026 3.41614 46.034 3.43301L49.0775 9.86185C49.42 10.5853 50.0816 11.0865 50.8475 11.2023L57.653 12.2333C57.671 12.2361 57.6764 12.2369 57.6837 12.2603C57.691 12.2837 57.687 12.2878 57.674 12.3009L52.7495 17.305C52.1955 17.8681 51.9428 18.679 52.0735 19.474Z" fill="#E29C03"/>
<path d="M52.0735 19.474L53.236 26.5399C53.2391 26.5586 53.24 26.5643 53.2208 26.5787C53.2017 26.5932 53.1968 26.5905 53.1807 26.5817L47.0936 23.2455C46.4088 22.8703 45.591 22.8703 44.9059 23.2455L38.8189 26.5815C38.8028 26.5902 38.7979 26.5931 38.7788 26.5786C38.7597 26.5641 38.7606 26.5585 38.7636 26.5399L39.9262 19.4739C40.0569 18.6788 39.8042 17.8681 39.2501 17.3049L34.3258 12.3009C34.3129 12.2876 34.3089 12.2837 34.3162 12.2603C34.3235 12.2369 34.3289 12.2361 34.3469 12.2333L41.1524 11.2023C41.9183 11.0863 42.58 10.5853 42.9224 9.86185L45.9659 3.43301C45.974 3.41614 45.9763 3.41091 45.9999 3.41091C46.0236 3.41091 46.026 3.41614 46.034 3.43301L49.0775 9.86185C49.42 10.5853 50.0816 11.0865 50.8475 11.2023L57.653 12.2333C57.671 12.2361 57.6764 12.2369 57.6837 12.2603C57.691 12.2837 57.687 12.2878 57.674 12.3009L52.7495 17.305C52.1955 17.8681 51.9428 18.679 52.0735 19.474Z" fill="#E29C03"/>
<path d="M59.2884 14.0274C59.9338 13.3715 60.1617 12.409 59.8832 11.5153C59.6046 10.6217 58.8775 9.98266 57.9856 9.84752L51.18 8.81659C51.1675 8.81471 51.1569 8.80654 51.1513 8.79489L48.108 2.36618C47.7091 1.52357 46.9014 1 45.9999 1C45.0985 1 44.2909 1.52357 43.892 2.36618L40.8485 8.79489C40.843 8.80654 40.8323 8.81458 40.8199 8.81659L34.0144 9.84752C33.1225 9.98266 32.3954 10.6217 32.1168 11.5153C31.8383 12.409 32.0662 13.3715 32.7116 14.0274L37.6361 19.0315C37.6451 19.0406 37.6492 19.0537 37.647 19.0666L36.4845 26.1326C36.3321 27.0586 36.6906 27.9771 37.4197 28.5293C38.149 29.0818 39.0976 29.153 39.8953 28.7159L45.9823 25.3798C45.9934 25.3737 46.0067 25.3738 46.0178 25.3798L52.1048 28.7159C52.4518 28.9061 52.8273 29 53.2009 29C53.6862 29 54.1684 28.8414 54.5803 28.5293C55.3094 27.9771 55.6678 27.0586 55.5155 26.1324L54.353 19.0666C54.3508 19.0537 54.3551 19.0406 54.3639 19.0315L59.2884 14.0274ZM52.0735 19.474L53.236 26.5399C53.2391 26.5586 53.24 26.5643 53.2208 26.5787C53.2017 26.5932 53.1968 26.5905 53.1807 26.5817L47.0936 23.2455C46.4088 22.8703 45.591 22.8703 44.9059 23.2455L38.8189 26.5815C38.8028 26.5902 38.7979 26.5931 38.7788 26.5786C38.7597 26.5641 38.7606 26.5585 38.7636 26.5399L39.9262 19.4739C40.0569 18.6788 39.8042 17.8681 39.2501 17.3049L34.3258 12.3009C34.3129 12.2876 34.3089 12.2837 34.3162 12.2603C34.3235 12.2369 34.3289 12.2361 34.3469 12.2333L41.1524 11.2023C41.9183 11.0863 42.58 10.5853 42.9224 9.86185L45.9659 3.43301C45.974 3.41614 45.9763 3.41091 45.9999 3.41091C46.0236 3.41091 46.026 3.41614 46.034 3.43301L49.0775 9.86185C49.42 10.5853 50.0816 11.0865 50.8475 11.2023L57.653 12.2333C57.671 12.2361 57.6764 12.2369 57.6837 12.2603C57.691 12.2837 57.687 12.2878 57.674 12.3009L52.7495 17.305C52.1955 17.8681 51.9428 18.679 52.0735 19.474Z" stroke="#E29C03"/>
<path d="M52.0735 19.474L53.236 26.5399C53.2391 26.5586 53.24 26.5643 53.2208 26.5787C53.2017 26.5932 53.1968 26.5905 53.1807 26.5817L47.0936 23.2455C46.4088 22.8703 45.591 22.8703 44.9059 23.2455L38.8189 26.5815C38.8028 26.5902 38.7979 26.5931 38.7788 26.5786C38.7597 26.5641 38.7606 26.5585 38.7636 26.5399L39.9262 19.4739C40.0569 18.6788 39.8042 17.8681 39.2501 17.3049L34.3258 12.3009C34.3129 12.2876 34.3089 12.2837 34.3162 12.2603C34.3235 12.2369 34.3289 12.2361 34.3469 12.2333L41.1524 11.2023C41.9183 11.0863 42.58 10.5853 42.9224 9.86185L45.9659 3.43301C45.974 3.41614 45.9763 3.41091 45.9999 3.41091C46.0236 3.41091 46.026 3.41614 46.034 3.43301L49.0775 9.86185C49.42 10.5853 50.0816 11.0865 50.8475 11.2023L57.653 12.2333C57.671 12.2361 57.6764 12.2369 57.6837 12.2603C57.691 12.2837 57.687 12.2878 57.674 12.3009L52.7495 17.305C52.1955 17.8681 51.9428 18.679 52.0735 19.474Z" stroke="#E29C03"/>
<path d="M90.2884 14.0274C90.9338 13.3715 91.1617 12.409 90.8832 11.5153C90.6046 10.6217 89.8775 9.98266 88.9856 9.84752L82.18 8.81659C82.1675 8.81471 82.1569 8.80654 82.1513 8.79489L79.108 2.36618C78.7091 1.52357 77.9014 1 76.9999 1C76.0985 1 75.2909 1.52357 74.892 2.36618L71.8485 8.79489C71.843 8.80654 71.8323 8.81458 71.8199 8.81659L65.0144 9.84752C64.1225 9.98266 63.3954 10.6217 63.1168 11.5153C62.8383 12.409 63.0662 13.3715 63.7116 14.0274L68.6361 19.0315C68.6451 19.0406 68.6492 19.0537 68.647 19.0666L67.4845 26.1326C67.3321 27.0586 67.6906 27.9771 68.4197 28.5293C69.149 29.0818 70.0976 29.153 70.8953 28.7159L76.9823 25.3798C76.9934 25.3737 77.0067 25.3738 77.0178 25.3798L83.1048 28.7159C83.4518 28.9061 83.8273 29 84.2009 29C84.6862 29 85.1684 28.8414 85.5803 28.5293C86.3094 27.9771 86.6678 27.0586 86.5155 26.1324L85.353 19.0666C85.3508 19.0537 85.3551 19.0406 85.3639 19.0315L90.2884 14.0274ZM83.0735 19.474L84.236 26.5399C84.2391 26.5586 84.24 26.5643 84.2208 26.5787C84.2017 26.5932 84.1968 26.5905 84.1807 26.5817L78.0936 23.2455C77.4088 22.8703 76.591 22.8703 75.9059 23.2455L69.8189 26.5815C69.8028 26.5902 69.7979 26.5931 69.7788 26.5786C69.7597 26.5641 69.7606 26.5585 69.7636 26.5399L70.9262 19.4739C71.0569 18.6788 70.8042 17.8681 70.2501 17.3049L65.3258 12.3009C65.3129 12.2876 65.3089 12.2837 65.3162 12.2603C65.3235 12.2369 65.3289 12.2361 65.3469 12.2333L72.1524 11.2023C72.9183 11.0863 73.58 10.5853 73.9224 9.86185L76.9659 3.43301C76.974 3.41614 76.9763 3.41091 76.9999 3.41091C77.0236 3.41091 77.026 3.41614 77.034 3.43301L80.0775 9.86185C80.42 10.5853 81.0816 11.0865 81.8475 11.2023L88.653 12.2333C88.671 12.2361 88.6764 12.2369 88.6837 12.2603C88.691 12.2837 88.687 12.2878 88.674 12.3009L83.7495 17.305C83.1955 17.8681 82.9428 18.679 83.0735 19.474Z" fill="#E29C03"/>
<path d="M83.0735 19.474L84.236 26.5399C84.2391 26.5586 84.24 26.5643 84.2208 26.5787C84.2017 26.5932 84.1968 26.5905 84.1807 26.5817L78.0936 23.2455C77.4088 22.8703 76.591 22.8703 75.9059 23.2455L69.8189 26.5815C69.8028 26.5902 69.7979 26.5931 69.7788 26.5786C69.7597 26.5641 69.7606 26.5585 69.7636 26.5399L70.9262 19.4739C71.0569 18.6788 70.8042 17.8681 70.2501 17.3049L65.3258 12.3009C65.3129 12.2876 65.3089 12.2837 65.3162 12.2603C65.3235 12.2369 65.3289 12.2361 65.3469 12.2333L72.1524 11.2023C72.9183 11.0863 73.58 10.5853 73.9224 9.86185L76.9659 3.43301C76.974 3.41614 76.9763 3.41091 76.9999 3.41091C77.0236 3.41091 77.026 3.41614 77.034 3.43301L80.0775 9.86185C80.42 10.5853 81.0816 11.0865 81.8475 11.2023L88.653 12.2333C88.671 12.2361 88.6764 12.2369 88.6837 12.2603C88.691 12.2837 88.687 12.2878 88.674 12.3009L83.7495 17.305C83.1955 17.8681 82.9428 18.679 83.0735 19.474Z" fill="#E29C03"/>
<path d="M90.2884 14.0274C90.9338 13.3715 91.1617 12.409 90.8832 11.5153C90.6046 10.6217 89.8775 9.98266 88.9856 9.84752L82.18 8.81659C82.1675 8.81471 82.1569 8.80654 82.1513 8.79489L79.108 2.36618C78.7091 1.52357 77.9014 1 76.9999 1C76.0985 1 75.2909 1.52357 74.892 2.36618L71.8485 8.79489C71.843 8.80654 71.8323 8.81458 71.8199 8.81659L65.0144 9.84752C64.1225 9.98266 63.3954 10.6217 63.1168 11.5153C62.8383 12.409 63.0662 13.3715 63.7116 14.0274L68.6361 19.0315C68.6451 19.0406 68.6492 19.0537 68.647 19.0666L67.4845 26.1326C67.3321 27.0586 67.6906 27.9771 68.4197 28.5293C69.149 29.0818 70.0976 29.153 70.8953 28.7159L76.9823 25.3798C76.9934 25.3737 77.0067 25.3738 77.0178 25.3798L83.1048 28.7159C83.4518 28.9061 83.8273 29 84.2009 29C84.6862 29 85.1684 28.8414 85.5803 28.5293C86.3094 27.9771 86.6678 27.0586 86.5155 26.1324L85.353 19.0666C85.3508 19.0537 85.3551 19.0406 85.3639 19.0315L90.2884 14.0274ZM83.0735 19.474L84.236 26.5399C84.2391 26.5586 84.24 26.5643 84.2208 26.5787C84.2017 26.5932 84.1968 26.5905 84.1807 26.5817L78.0936 23.2455C77.4088 22.8703 76.591 22.8703 75.9059 23.2455L69.8189 26.5815C69.8028 26.5902 69.7979 26.5931 69.7788 26.5786C69.7597 26.5641 69.7606 26.5585 69.7636 26.5399L70.9262 19.4739C71.0569 18.6788 70.8042 17.8681 70.2501 17.3049L65.3258 12.3009C65.3129 12.2876 65.3089 12.2837 65.3162 12.2603C65.3235 12.2369 65.3289 12.2361 65.3469 12.2333L72.1524 11.2023C72.9183 11.0863 73.58 10.5853 73.9224 9.86185L76.9659 3.43301C76.974 3.41614 76.9763 3.41091 76.9999 3.41091C77.0236 3.41091 77.026 3.41614 77.034 3.43301L80.0775 9.86185C80.42 10.5853 81.0816 11.0865 81.8475 11.2023L88.653 12.2333C88.671 12.2361 88.6764 12.2369 88.6837 12.2603C88.691 12.2837 88.687 12.2878 88.674 12.3009L83.7495 17.305C83.1955 17.8681 82.9428 18.679 83.0735 19.474Z" stroke="#E29C03"/>
<path d="M83.0735 19.474L84.236 26.5399C84.2391 26.5586 84.24 26.5643 84.2208 26.5787C84.2017 26.5932 84.1968 26.5905 84.1807 26.5817L78.0936 23.2455C77.4088 22.8703 76.591 22.8703 75.9059 23.2455L69.8189 26.5815C69.8028 26.5902 69.7979 26.5931 69.7788 26.5786C69.7597 26.5641 69.7606 26.5585 69.7636 26.5399L70.9262 19.4739C71.0569 18.6788 70.8042 17.8681 70.2501 17.3049L65.3258 12.3009C65.3129 12.2876 65.3089 12.2837 65.3162 12.2603C65.3235 12.2369 65.3289 12.2361 65.3469 12.2333L72.1524 11.2023C72.9183 11.0863 73.58 10.5853 73.9224 9.86185L76.9659 3.43301C76.974 3.41614 76.9763 3.41091 76.9999 3.41091C77.0236 3.41091 77.026 3.41614 77.034 3.43301L80.0775 9.86185C80.42 10.5853 81.0816 11.0865 81.8475 11.2023L88.653 12.2333C88.671 12.2361 88.6764 12.2369 88.6837 12.2603C88.691 12.2837 88.687 12.2878 88.674 12.3009L83.7495 17.305C83.1955 17.8681 82.9428 18.679 83.0735 19.474Z" stroke="#E29C03"/>
<path d="M121.288 14.0274C121.934 13.3715 122.162 12.409 121.883 11.5153C121.605 10.6217 120.878 9.98266 119.986 9.84752L113.18 8.81659C113.168 8.81471 113.157 8.80654 113.151 8.79489L110.108 2.36618C109.709 1.52357 108.901 1 108 1C107.098 1 106.291 1.52357 105.892 2.36618L102.849 8.79489C102.843 8.80654 102.832 8.81458 102.82 8.81659L96.0144 9.84752C95.1225 9.98266 94.3954 10.6217 94.1168 11.5153C93.8383 12.409 94.0662 13.3715 94.7116 14.0274L99.6361 19.0315C99.6451 19.0406 99.6492 19.0537 99.647 19.0666L98.4845 26.1326C98.3321 27.0586 98.6906 27.9771 99.4197 28.5293C100.149 29.0818 101.098 29.153 101.895 28.7159L107.982 25.3798C107.993 25.3737 108.007 25.3738 108.018 25.3798L114.105 28.7159C114.452 28.9061 114.827 29 115.201 29C115.686 29 116.168 28.8414 116.58 28.5293C117.309 27.9771 117.668 27.0586 117.516 26.1324L116.353 19.0666C116.351 19.0537 116.355 19.0406 116.364 19.0315L121.288 14.0274ZM114.073 19.474L115.236 26.5399C115.239 26.5586 115.24 26.5643 115.221 26.5787C115.202 26.5932 115.197 26.5905 115.181 26.5817L109.094 23.2455C108.409 22.8703 107.591 22.8703 106.906 23.2455L100.819 26.5815C100.803 26.5902 100.798 26.5931 100.779 26.5786C100.76 26.5641 100.761 26.5585 100.764 26.5399L101.926 19.4739C102.057 18.6788 101.804 17.8681 101.25 17.3049L96.3258 12.3009C96.3129 12.2876 96.3089 12.2837 96.3162 12.2603C96.3235 12.2369 96.3289 12.2361 96.3469 12.2333L103.152 11.2023C103.918 11.0863 104.58 10.5853 104.922 9.86185L107.966 3.43301C107.974 3.41614 107.976 3.41091 108 3.41091C108.024 3.41091 108.026 3.41614 108.034 3.43301L111.077 9.86185C111.42 10.5853 112.082 11.0865 112.847 11.2023L119.653 12.2333C119.671 12.2361 119.676 12.2369 119.684 12.2603C119.691 12.2837 119.687 12.2878 119.674 12.3009L114.75 17.305C114.196 17.8681 113.943 18.679 114.073 19.474Z" fill="#E29C03"/>
<path d="M114.073 19.474L115.236 26.5399C115.239 26.5586 115.24 26.5643 115.221 26.5787C115.202 26.5932 115.197 26.5905 115.181 26.5817L109.094 23.2455C108.409 22.8703 107.591 22.8703 106.906 23.2455L100.819 26.5815C100.803 26.5902 100.798 26.5931 100.779 26.5786C100.76 26.5641 100.761 26.5585 100.764 26.5399L101.926 19.4739C102.057 18.6788 101.804 17.8681 101.25 17.3049L96.3258 12.3009C96.3129 12.2876 96.3089 12.2837 96.3162 12.2603C96.3235 12.2369 96.3289 12.2361 96.3469 12.2333L103.152 11.2023C103.918 11.0863 104.58 10.5853 104.922 9.86185L107.966 3.43301C107.974 3.41614 107.976 3.41091 108 3.41091C108.024 3.41091 108.026 3.41614 108.034 3.43301L111.077 9.86185C111.42 10.5853 112.082 11.0865 112.847 11.2023L119.653 12.2333C119.671 12.2361 119.676 12.2369 119.684 12.2603C119.691 12.2837 119.687 12.2878 119.674 12.3009L114.75 17.305C114.196 17.8681 113.943 18.679 114.073 19.474Z" fill="#E29C03"/>
<path d="M121.288 14.0274C121.934 13.3715 122.162 12.409 121.883 11.5153C121.605 10.6217 120.878 9.98266 119.986 9.84752L113.18 8.81659C113.168 8.81471 113.157 8.80654 113.151 8.79489L110.108 2.36618C109.709 1.52357 108.901 1 108 1C107.098 1 106.291 1.52357 105.892 2.36618L102.849 8.79489C102.843 8.80654 102.832 8.81458 102.82 8.81659L96.0144 9.84752C95.1225 9.98266 94.3954 10.6217 94.1168 11.5153C93.8383 12.409 94.0662 13.3715 94.7116 14.0274L99.6361 19.0315C99.6451 19.0406 99.6492 19.0537 99.647 19.0666L98.4845 26.1326C98.3321 27.0586 98.6906 27.9771 99.4197 28.5293C100.149 29.0818 101.098 29.153 101.895 28.7159L107.982 25.3798C107.993 25.3737 108.007 25.3738 108.018 25.3798L114.105 28.7159C114.452 28.9061 114.827 29 115.201 29C115.686 29 116.168 28.8414 116.58 28.5293C117.309 27.9771 117.668 27.0586 117.516 26.1324L116.353 19.0666C116.351 19.0537 116.355 19.0406 116.364 19.0315L121.288 14.0274ZM114.073 19.474L115.236 26.5399C115.239 26.5586 115.24 26.5643 115.221 26.5787C115.202 26.5932 115.197 26.5905 115.181 26.5817L109.094 23.2455C108.409 22.8703 107.591 22.8703 106.906 23.2455L100.819 26.5815C100.803 26.5902 100.798 26.5931 100.779 26.5786C100.76 26.5641 100.761 26.5585 100.764 26.5399L101.926 19.4739C102.057 18.6788 101.804 17.8681 101.25 17.3049L96.3258 12.3009C96.3129 12.2876 96.3089 12.2837 96.3162 12.2603C96.3235 12.2369 96.3289 12.2361 96.3469 12.2333L103.152 11.2023C103.918 11.0863 104.58 10.5853 104.922 9.86185L107.966 3.43301C107.974 3.41614 107.976 3.41091 108 3.41091C108.024 3.41091 108.026 3.41614 108.034 3.43301L111.077 9.86185C111.42 10.5853 112.082 11.0865 112.847 11.2023L119.653 12.2333C119.671 12.2361 119.676 12.2369 119.684 12.2603C119.691 12.2837 119.687 12.2878 119.674 12.3009L114.75 17.305C114.196 17.8681 113.943 18.679 114.073 19.474Z" stroke="#E29C03"/>
<path d="M114.073 19.474L115.236 26.5399C115.239 26.5586 115.24 26.5643 115.221 26.5787C115.202 26.5932 115.197 26.5905 115.181 26.5817L109.094 23.2455C108.409 22.8703 107.591 22.8703 106.906 23.2455L100.819 26.5815C100.803 26.5902 100.798 26.5931 100.779 26.5786C100.76 26.5641 100.761 26.5585 100.764 26.5399L101.926 19.4739C102.057 18.6788 101.804 17.8681 101.25 17.3049L96.3258 12.3009C96.3129 12.2876 96.3089 12.2837 96.3162 12.2603C96.3235 12.2369 96.3289 12.2361 96.3469 12.2333L103.152 11.2023C103.918 11.0863 104.58 10.5853 104.922 9.86185L107.966 3.43301C107.974 3.41614 107.976 3.41091 108 3.41091C108.024 3.41091 108.026 3.41614 108.034 3.43301L111.077 9.86185C111.42 10.5853 112.082 11.0865 112.847 11.2023L119.653 12.2333C119.671 12.2361 119.676 12.2369 119.684 12.2603C119.691 12.2837 119.687 12.2878 119.674 12.3009L114.75 17.305C114.196 17.8681 113.943 18.679 114.073 19.474Z" stroke="#E29C03"/>
<path d="M152.288 14.0274C152.934 13.3715 153.162 12.409 152.883 11.5153C152.605 10.6217 151.878 9.98266 150.986 9.84752L144.18 8.81659C144.168 8.81471 144.157 8.80654 144.151 8.79489L141.108 2.36618C140.709 1.52357 139.901 1 139 1C138.098 1 137.291 1.52357 136.892 2.36618L133.849 8.79489C133.843 8.80654 133.832 8.81458 133.82 8.81659L127.014 9.84752C126.122 9.98266 125.395 10.6217 125.117 11.5153C124.838 12.409 125.066 13.3715 125.712 14.0274L130.636 19.0315C130.645 19.0406 130.649 19.0537 130.647 19.0666L129.484 26.1326C129.332 27.0586 129.691 27.9771 130.42 28.5293C131.149 29.0818 132.098 29.153 132.895 28.7159L138.982 25.3798C138.993 25.3737 139.007 25.3738 139.018 25.3798L145.105 28.7159C145.452 28.9061 145.827 29 146.201 29C146.686 29 147.168 28.8414 147.58 28.5293C148.309 27.9771 148.668 27.0586 148.516 26.1324L147.353 19.0666C147.351 19.0537 147.355 19.0406 147.364 19.0315L152.288 14.0274ZM145.073 19.474L146.236 26.5399C146.239 26.5586 146.24 26.5643 146.221 26.5787C146.202 26.5932 146.197 26.5905 146.181 26.5817L140.094 23.2455C139.409 22.8703 138.591 22.8703 137.906 23.2455L131.819 26.5815C131.803 26.5902 131.798 26.5931 131.779 26.5786C131.76 26.5641 131.761 26.5585 131.764 26.5399L132.926 19.4739C133.057 18.6788 132.804 17.8681 132.25 17.3049L127.326 12.3009C127.313 12.2876 127.309 12.2837 127.316 12.2603C127.324 12.2369 127.329 12.2361 127.347 12.2333L134.152 11.2023C134.918 11.0863 135.58 10.5853 135.922 9.86185L138.966 3.43301C138.974 3.41614 138.976 3.41091 139 3.41091C139.024 3.41091 139.026 3.41614 139.034 3.43301L142.077 9.86185C142.42 10.5853 143.082 11.0865 143.847 11.2023L150.653 12.2333C150.671 12.2361 150.676 12.2369 150.684 12.2603C150.691 12.2837 150.687 12.2878 150.674 12.3009L145.75 17.305C145.196 17.8681 144.943 18.679 145.073 19.474Z" fill="#E29C03"/>
<path d="M145.073 19.474L146.236 26.5399C146.239 26.5586 146.24 26.5643 146.221 26.5787C146.202 26.5932 146.197 26.5905 146.181 26.5817L140.094 23.2455C139.409 22.8703 138.591 22.8703 137.906 23.2455L131.819 26.5815C131.803 26.5902 131.798 26.5931 131.779 26.5786C131.76 26.5641 131.761 26.5585 131.764 26.5399L132.926 19.4739C133.057 18.6788 132.804 17.8681 132.25 17.3049L127.326 12.3009C127.313 12.2876 127.309 12.2837 127.316 12.2603C127.324 12.2369 127.329 12.2361 127.347 12.2333L134.152 11.2023C134.918 11.0863 135.58 10.5853 135.922 9.86185L138.966 3.43301C138.974 3.41614 138.976 3.41091 139 3.41091C139.024 3.41091 139.026 3.41614 139.034 3.43301L142.077 9.86185C142.42 10.5853 143.082 11.0865 143.847 11.2023L150.653 12.2333C150.671 12.2361 150.676 12.2369 150.684 12.2603C150.691 12.2837 150.687 12.2878 150.674 12.3009L145.75 17.305C145.196 17.8681 144.943 18.679 145.073 19.474Z" fill="#E29C03"/>
<path d="M152.288 14.0274C152.934 13.3715 153.162 12.409 152.883 11.5153C152.605 10.6217 151.878 9.98266 150.986 9.84752L144.18 8.81659C144.168 8.81471 144.157 8.80654 144.151 8.79489L141.108 2.36618C140.709 1.52357 139.901 1 139 1C138.098 1 137.291 1.52357 136.892 2.36618L133.849 8.79489C133.843 8.80654 133.832 8.81458 133.82 8.81659L127.014 9.84752C126.122 9.98266 125.395 10.6217 125.117 11.5153C124.838 12.409 125.066 13.3715 125.712 14.0274L130.636 19.0315C130.645 19.0406 130.649 19.0537 130.647 19.0666L129.484 26.1326C129.332 27.0586 129.691 27.9771 130.42 28.5293C131.149 29.0818 132.098 29.153 132.895 28.7159L138.982 25.3798C138.993 25.3737 139.007 25.3738 139.018 25.3798L145.105 28.7159C145.452 28.9061 145.827 29 146.201 29C146.686 29 147.168 28.8414 147.58 28.5293C148.309 27.9771 148.668 27.0586 148.516 26.1324L147.353 19.0666C147.351 19.0537 147.355 19.0406 147.364 19.0315L152.288 14.0274ZM145.073 19.474L146.236 26.5399C146.239 26.5586 146.24 26.5643 146.221 26.5787C146.202 26.5932 146.197 26.5905 146.181 26.5817L140.094 23.2455C139.409 22.8703 138.591 22.8703 137.906 23.2455L131.819 26.5815C131.803 26.5902 131.798 26.5931 131.779 26.5786C131.76 26.5641 131.761 26.5585 131.764 26.5399L132.926 19.4739C133.057 18.6788 132.804 17.8681 132.25 17.3049L127.326 12.3009C127.313 12.2876 127.309 12.2837 127.316 12.2603C127.324 12.2369 127.329 12.2361 127.347 12.2333L134.152 11.2023C134.918 11.0863 135.58 10.5853 135.922 9.86185L138.966 3.43301C138.974 3.41614 138.976 3.41091 139 3.41091C139.024 3.41091 139.026 3.41614 139.034 3.43301L142.077 9.86185C142.42 10.5853 143.082 11.0865 143.847 11.2023L150.653 12.2333C150.671 12.2361 150.676 12.2369 150.684 12.2603C150.691 12.2837 150.687 12.2878 150.674 12.3009L145.75 17.305C145.196 17.8681 144.943 18.679 145.073 19.474Z" stroke="#E29C03"/>
<path d="M145.073 19.474L146.236 26.5399C146.239 26.5586 146.24 26.5643 146.221 26.5787C146.202 26.5932 146.197 26.5905 146.181 26.5817L140.094 23.2455C139.409 22.8703 138.591 22.8703 137.906 23.2455L131.819 26.5815C131.803 26.5902 131.798 26.5931 131.779 26.5786C131.76 26.5641 131.761 26.5585 131.764 26.5399L132.926 19.4739C133.057 18.6788 132.804 17.8681 132.25 17.3049L127.326 12.3009C127.313 12.2876 127.309 12.2837 127.316 12.2603C127.324 12.2369 127.329 12.2361 127.347 12.2333L134.152 11.2023C134.918 11.0863 135.58 10.5853 135.922 9.86185L138.966 3.43301C138.974 3.41614 138.976 3.41091 139 3.41091C139.024 3.41091 139.026 3.41614 139.034 3.43301L142.077 9.86185C142.42 10.5853 143.082 11.0865 143.847 11.2023L150.653 12.2333C150.671 12.2361 150.676 12.2369 150.684 12.2603C150.691 12.2837 150.687 12.2878 150.674 12.3009L145.75 17.305C145.196 17.8681 144.943 18.679 145.073 19.474Z" stroke="#E29C03"/>
<path d="M28.2884 14.0274C28.9338 13.3715 29.1617 12.409 28.8832 11.5153C28.6046 10.6217 27.8775 9.98266 26.9856 9.84752L20.18 8.81659C20.1675 8.81471 20.1569 8.80654 20.1513 8.79489L17.108 2.36618C16.7091 1.52357 15.9014 1 14.9999 1C14.0985 1 13.2909 1.52357 12.892 2.36618L9.84853 8.79489C9.84301 8.80654 9.83234 8.81458 9.81988 8.81659L3.01439 9.84752C2.12246 9.98266 1.39537 10.6217 1.11682 11.5153C0.838268 12.409 1.0662 13.3715 1.71157 14.0274L6.63607 19.0315C6.64506 19.0406 6.64917 19.0537 6.64699 19.0666L5.48447 26.1326C5.33209 27.0586 5.69056 27.9771 6.4197 28.5293C7.14897 29.0818 8.09756 29.153 8.89532 28.7159L14.9823 25.3798C14.9934 25.3737 15.0067 25.3738 15.0178 25.3798L21.1048 28.7159C21.4518 28.9061 21.8273 29 22.2009 29C22.6862 29 23.1684 28.8414 23.5803 28.5293C24.3094 27.9771 24.6678 27.0586 24.5155 26.1324L23.353 19.0666C23.3508 19.0537 23.3551 19.0406 23.3639 19.0315L28.2884 14.0274ZM21.0735 19.474L22.236 26.5399C22.2391 26.5586 22.24 26.5643 22.2208 26.5787C22.2017 26.5932 22.1968 26.5905 22.1807 26.5817L16.0936 23.2455C15.4088 22.8703 14.591 22.8703 13.9059 23.2455L7.81888 26.5815C7.80282 26.5902 7.79794 26.5931 7.7788 26.5786C7.75965 26.5641 7.76055 26.5585 7.76364 26.5399L8.92615 19.4739C9.05695 18.6788 8.80422 17.8681 8.25007 17.3049L3.32583 12.3009C3.31285 12.2876 3.30887 12.2837 3.31619 12.2603C3.32352 12.2369 3.32891 12.2361 3.3469 12.2333L10.1524 11.2023C10.9183 11.0863 11.58 10.5853 11.9224 9.86185L14.9659 3.43301C14.974 3.41614 14.9763 3.41091 14.9999 3.41091C15.0236 3.41091 15.026 3.41614 15.034 3.43301L18.0775 9.86185C18.42 10.5853 19.0816 11.0865 19.8475 11.2023L26.653 12.2333C26.671 12.2361 26.6764 12.2369 26.6837 12.2603C26.691 12.2837 26.687 12.2878 26.674 12.3009L21.7495 17.305C21.1955 17.8681 20.9428 18.679 21.0735 19.474Z" fill="#E29C03"/>
<path d="M21.0735 19.474L22.236 26.5399C22.2391 26.5586 22.24 26.5643 22.2208 26.5787C22.2017 26.5932 22.1968 26.5905 22.1807 26.5817L16.0936 23.2455C15.4088 22.8703 14.591 22.8703 13.9059 23.2455L7.81888 26.5815C7.80282 26.5902 7.79794 26.5931 7.7788 26.5786C7.75965 26.5641 7.76055 26.5585 7.76364 26.5399L8.92615 19.4739C9.05695 18.6788 8.80422 17.8681 8.25007 17.3049L3.32583 12.3009C3.31285 12.2876 3.30887 12.2837 3.31619 12.2603C3.32352 12.2369 3.32891 12.2361 3.3469 12.2333L10.1524 11.2023C10.9183 11.0863 11.58 10.5853 11.9224 9.86185L14.9659 3.43301C14.974 3.41614 14.9763 3.41091 14.9999 3.41091C15.0236 3.41091 15.026 3.41614 15.034 3.43301L18.0775 9.86185C18.42 10.5853 19.0816 11.0865 19.8475 11.2023L26.653 12.2333C26.671 12.2361 26.6764 12.2369 26.6837 12.2603C26.691 12.2837 26.687 12.2878 26.674 12.3009L21.7495 17.305C21.1955 17.8681 20.9428 18.679 21.0735 19.474Z" fill="#E29C03"/>
<path d="M28.2884 14.0274C28.9338 13.3715 29.1617 12.409 28.8832 11.5153C28.6046 10.6217 27.8775 9.98266 26.9856 9.84752L20.18 8.81659C20.1675 8.81471 20.1569 8.80654 20.1513 8.79489L17.108 2.36618C16.7091 1.52357 15.9014 1 14.9999 1C14.0985 1 13.2909 1.52357 12.892 2.36618L9.84853 8.79489C9.84301 8.80654 9.83234 8.81458 9.81988 8.81659L3.01439 9.84752C2.12246 9.98266 1.39537 10.6217 1.11682 11.5153C0.838268 12.409 1.0662 13.3715 1.71157 14.0274L6.63607 19.0315C6.64506 19.0406 6.64917 19.0537 6.64699 19.0666L5.48447 26.1326C5.33209 27.0586 5.69056 27.9771 6.4197 28.5293C7.14897 29.0818 8.09756 29.153 8.89532 28.7159L14.9823 25.3798C14.9934 25.3737 15.0067 25.3738 15.0178 25.3798L21.1048 28.7159C21.4518 28.9061 21.8273 29 22.2009 29C22.6862 29 23.1684 28.8414 23.5803 28.5293C24.3094 27.9771 24.6678 27.0586 24.5155 26.1324L23.353 19.0666C23.3508 19.0537 23.3551 19.0406 23.3639 19.0315L28.2884 14.0274ZM21.0735 19.474L22.236 26.5399C22.2391 26.5586 22.24 26.5643 22.2208 26.5787C22.2017 26.5932 22.1968 26.5905 22.1807 26.5817L16.0936 23.2455C15.4088 22.8703 14.591 22.8703 13.9059 23.2455L7.81888 26.5815C7.80282 26.5902 7.79794 26.5931 7.7788 26.5786C7.75965 26.5641 7.76055 26.5585 7.76364 26.5399L8.92615 19.4739C9.05695 18.6788 8.80422 17.8681 8.25007 17.3049L3.32583 12.3009C3.31285 12.2876 3.30887 12.2837 3.31619 12.2603C3.32352 12.2369 3.32891 12.2361 3.3469 12.2333L10.1524 11.2023C10.9183 11.0863 11.58 10.5853 11.9224 9.86185L14.9659 3.43301C14.974 3.41614 14.9763 3.41091 14.9999 3.41091C15.0236 3.41091 15.026 3.41614 15.034 3.43301L18.0775 9.86185C18.42 10.5853 19.0816 11.0865 19.8475 11.2023L26.653 12.2333C26.671 12.2361 26.6764 12.2369 26.6837 12.2603C26.691 12.2837 26.687 12.2878 26.674 12.3009L21.7495 17.305C21.1955 17.8681 20.9428 18.679 21.0735 19.474Z" stroke="#E29C03"/>
<path d="M21.0735 19.474L22.236 26.5399C22.2391 26.5586 22.24 26.5643 22.2208 26.5787C22.2017 26.5932 22.1968 26.5905 22.1807 26.5817L16.0936 23.2455C15.4088 22.8703 14.591 22.8703 13.9059 23.2455L7.81888 26.5815C7.80282 26.5902 7.79794 26.5931 7.7788 26.5786C7.75965 26.5641 7.76055 26.5585 7.76364 26.5399L8.92615 19.4739C9.05695 18.6788 8.80422 17.8681 8.25007 17.3049L3.32583 12.3009C3.31285 12.2876 3.30887 12.2837 3.31619 12.2603C3.32352 12.2369 3.32891 12.2361 3.3469 12.2333L10.1524 11.2023C10.9183 11.0863 11.58 10.5853 11.9224 9.86185L14.9659 3.43301C14.974 3.41614 14.9763 3.41091 14.9999 3.41091C15.0236 3.41091 15.026 3.41614 15.034 3.43301L18.0775 9.86185C18.42 10.5853 19.0816 11.0865 19.8475 11.2023L26.653 12.2333C26.671 12.2361 26.6764 12.2369 26.6837 12.2603C26.691 12.2837 26.687 12.2878 26.674 12.3009L21.7495 17.305C21.1955 17.8681 20.9428 18.679 21.0735 19.474Z" stroke="#E29C03"/>
</svg>
